<?xml version="1.0" encoding="UTF-8" standalone="no"?>
<!DOCTYPE svg PUBLIC "-//W3C//DTD SVG 1.1//EN" "http://www.w3.org/Graphics/SVG/1.1/DTD/svg11.dtd">
<svg width="100%" height="100%" viewBox="0 0 1000 300" version="1.1" xmlns="http://www.w3.org/2000/svg" xmlns:xlink="http://www.w3.org/1999/xlink" xml:space="preserve" xmlns:serif="http://www.serif.com/" style="fill-rule:evenodd;clip-rule:evenodd;stroke-linejoin:round;stroke-miterlimit:2;">
    <g transform="matrix(1.65569,0,0,1.65569,-311.321,-266.076)">
        <path d="M277.367,269.354C284.202,264.665 293.543,266.402 298.236,273.234C298.955,274.29 299.648,275.446 300.299,276.71L318.367,311.772L270.745,311.772L250.781,274.813C248.251,270.028 245.996,266.92 244.016,265.49C241.321,263.62 238.268,262.685 234.858,262.685L231.559,262.685L231.559,311.772L194.022,311.772L194.022,190.829L256.308,190.829C267.858,190.829 276.685,191.819 282.79,193.799C288.895,195.779 293.817,199.451 297.557,204.813C301.297,210.175 303.167,216.706 303.167,224.406C303.167,231.116 301.737,236.905 298.877,241.772C298.808,241.89 298.733,242.011 298.653,242.133C293.978,249.638 284.183,252.066 276.544,247.614C274.641,246.507 272.429,245.871 270.071,245.871C262.965,245.871 257.195,251.641 257.195,258.747C257.195,265.853 262.965,271.622 270.071,271.622C272.779,271.622 275.293,270.784 277.367,269.354ZM231.559,239.833L247.316,239.833C249.021,239.833 252.321,239.283 257.215,238.183C259.69,237.689 261.712,236.424 263.279,234.389C264.847,232.354 265.63,230.016 265.63,227.376C265.63,223.471 264.393,220.474 261.918,218.384C259.443,216.294 254.796,215.249 247.976,215.249L231.559,215.249L231.559,239.833Z" style="fill:rgb(19,19,19);"/>
    </g>
    <g transform="matrix(1.65569,0,0,1.65569,-245.093,-266.076)">
        <path d="M399.36,291.807L356.791,291.807L350.934,311.772L312.737,311.772L358.193,190.829L398.948,190.829L444.404,311.772L405.3,311.772L399.36,291.807ZM391.523,265.655L378.158,222.179L364.876,265.655L391.523,265.655Z" style="fill:rgb(19,19,19);"/>
    </g>
    <g transform="matrix(1.65569,0,0,1.65569,-245.093,-266.076)">
        <rect x="457.851" y="190.829" width="37.454" height="120.943" style="fill:rgb(19,19,19);"/>
    </g>
    <g transform="matrix(1.65569,0,0,1.65569,-245.093,-266.076)">
        <path d="M515.6,271.76L551.157,269.533C551.927,275.308 553.494,279.708 555.859,282.733C559.709,287.627 565.209,290.075 572.359,290.075C577.694,290.075 581.805,288.824 584.692,286.321C587.58,283.819 589.024,280.918 589.024,277.618C589.024,274.483 587.649,271.678 584.899,269.203C582.149,266.728 575.769,264.39 565.759,262.191C549.369,258.506 537.682,253.611 530.697,247.506C523.657,241.401 520.138,233.619 520.138,224.159C520.138,217.944 521.939,212.073 525.541,206.545C529.144,201.018 534.561,196.673 541.793,193.511C549.026,190.348 558.939,188.767 571.534,188.767C586.989,188.767 598.772,191.641 606.885,197.388C614.997,203.135 619.823,212.279 621.363,224.819L586.136,226.881C585.201,221.436 583.235,217.476 580.238,215.001C577.24,212.527 573.101,211.289 567.822,211.289C563.477,211.289 560.204,212.21 558.004,214.053C555.804,215.895 554.704,218.136 554.704,220.776C554.704,222.701 555.612,224.434 557.427,225.974C559.187,227.569 563.367,229.054 569.967,230.429C586.301,233.949 598.002,237.51 605.07,241.112C612.137,244.715 617.279,249.183 620.497,254.518C623.714,259.853 625.323,265.82 625.323,272.42C625.323,280.175 623.178,287.325 618.888,293.87C614.598,300.415 608.603,305.378 600.903,308.761C593.204,312.143 583.496,313.834 571.782,313.834C551.212,313.834 536.967,309.875 529.047,301.955C521.128,294.035 516.645,283.97 515.6,271.76Z" style="fill:rgb(19,19,19);"/>
    </g>
    <g transform="matrix(1.65569,0,0,1.65569,-245.093,-266.076)">
        <path d="M644.05,190.829L744.203,190.829L744.203,216.651L681.504,216.651L681.504,235.874L739.666,235.874L739.666,260.541L681.504,260.541L681.504,284.383L746.018,284.383L746.018,311.772L644.05,311.772L644.05,190.829Z" style="fill:rgb(19,19,19);"/>
    </g>
    <g transform="matrix(1.18337,0,0,1.15458,-143.131,-338.326)">
        <circle cx="290.934" cy="433.691" r="18.647" style="fill:rgb(19,19,19);"/>
    </g>
    <g transform="matrix(1.18337,0,0,1.15458,-99.1792,-381.386)">
        <circle cx="290.934" cy="433.691" r="18.647" style="fill:rgb(19,19,19);"/>
    </g>
    <g transform="matrix(1.18337,0,0,1.15458,-98.9987,-295.267)">
        <circle cx="290.934" cy="433.691" r="18.647" style="fill:rgb(19,19,19);"/>
    </g>
</svg>
